<svg width="50" height="50" viewBox="0 0 50 50" fill="none" xmlns="http://www.w3.org/2000/svg">
<path d="M48.4375 37.5H6.25V7.8125C6.25 6.94922 5.55078 6.25 4.6875 6.25H1.5625C0.699219 6.25 0 6.94922 0 7.8125V40.625C0 42.3506 1.39941 43.75 3.125 43.75H48.4375C49.3008 43.75 50 43.0508 50 42.1875V39.0625C50 38.1992 49.3008 37.5 48.4375 37.5ZM45.3125 9.375H33.7832C31.6953 9.375 30.6494 11.8994 32.126 13.376L35.29 16.54L28.125 23.7061L20.96 16.541C19.7393 15.3203 17.7607 15.3203 16.541 16.541L9.83301 23.249C9.22266 23.8594 9.22266 24.8486 9.83301 25.459L12.042 27.668C12.6523 28.2783 13.6416 28.2783 14.252 27.668L18.75 23.1689L25.915 30.334C27.1357 31.5547 29.1143 31.5547 30.334 30.334L39.709 20.959L42.873 24.123C44.3496 25.5996 46.874 24.5537 46.874 22.4658V10.9375C46.875 10.0742 46.1758 9.375 45.3125 9.375Z" fill="#637037" fill-opacity="0.05"/>
</svg>
