<svg width="50" height="50" viewBox="0 0 50 50" fill="none" xmlns="http://www.w3.org/2000/svg">
<path d="M8.67983 0.17857C8.18087 0.441174 7.80665 0.850838 7.69231 1.25C7.64033 1.46008 7.58836 2.2584 7.58836 3.01471V4.41176H4.85447C2.21414 4.41176 2.11019 4.42227 1.68399 4.65336C1.11227 4.95798 0.488565 5.57773 0.239085 6.07143C0.0935551 6.37605 0.04158 6.7542 0.02079 7.82563C-0.010395 9.10714 0 9.21218 0.197505 9.39075L0.4158 9.59034V27.2059C0.4158 44.6849 0.4158 44.8214 0.2079 45.0105C0.02079 45.1786 0 45.3361 0 46.4076C0 47.0693 0.051975 47.8046 0.12474 48.0357C0.280665 48.5714 1.09148 49.4643 1.68399 49.7689L2.15177 50H15.0832C27.8586 50 28.0249 49.9895 28.4823 49.7794C29.0437 49.5273 29.6778 48.9286 29.948 48.4034C30.1143 48.0777 30.1455 47.7836 30.1455 46.5546C30.1455 45.3782 30.1143 45.063 29.9896 44.958C29.8649 44.8529 29.8337 44.5378 29.8337 43.4244V42.0168H30.4158C31.289 42.0168 31.9335 41.5756 32.131 40.8403L32.2349 40.4412H36.7256C41.58 40.4307 41.5177 40.4412 41.9023 39.8529C42.0686 39.5903 42.0998 39.3592 42.0998 38.2773C42.0998 36.1555 42.4012 35.1681 43.3056 34.3592C44.3555 33.4349 45.1975 33.2038 47.5572 33.1933C49.0748 33.1933 49.3971 33.0777 49.7921 32.437C49.9896 32.1008 50 31.8908 50 23.2878C50 15.3151 49.9792 14.4433 49.8337 14.1807C49.4387 13.5189 49.9272 13.5504 40.6237 13.5504L32.1726 13.5399L31.9647 13.2038C31.6216 12.6471 31.1331 12.395 30.447 12.395H29.8337V10.9874C29.8337 9.87395 29.8649 9.55882 29.9896 9.45378C30.1143 9.34874 30.1455 9.03361 30.1455 7.85714C30.1455 6.20798 30.0624 5.92437 29.3451 5.23109C28.5551 4.45378 28.3472 4.41176 25.343 4.41176H22.6611V2.99369C22.6611 1.77521 22.6299 1.5126 22.4532 1.17647C22.1726 0.630249 22.0374 0.483192 21.6216 0.220589C21.2578 0 21.1954 0 15.1247 0C9.74012 0.0105019 8.9501 0.0315094 8.67983 0.17857ZM21.0291 1.09243C21.6944 1.37605 21.7672 1.55462 21.8087 3.05672L21.8503 4.41176H15.1247H8.39917L8.44075 3.06723C8.48233 1.57563 8.55509 1.35504 9.14761 1.11345C9.66736 0.892857 20.5198 0.871849 21.0291 1.09243ZM28.2328 5.58823C29.0125 6.01891 29.3139 6.69117 29.3139 8.0042V8.82353H15.1247H0.935551V8.0042C0.935551 7.56302 0.987526 7.0168 1.0499 6.79622C1.19543 6.25 1.78794 5.60924 2.26611 5.48319C2.51559 5.40966 7.15177 5.37815 15.2807 5.38865C26.9958 5.40966 27.9314 5.42017 28.2328 5.58823ZM28.8981 10.4517V11.2395H15.1247H1.35135V10.4517V9.66386H15.1247H28.8981V10.4517ZM3.9501 27.2059V42.3319H2.65073H1.35135V27.2059V12.0798H2.65073H3.9501V27.2059ZM5.61331 27.2059V42.3319H5.24948H4.88565V27.2059V12.0798H5.24948H5.61331V27.2059ZM28.8981 27.2059V42.3319H17.6715H6.44491V27.2059V12.0798H17.6715H28.8981V27.2059ZM31.0603 13.5819C31.2266 13.771 31.237 14.5903 31.237 27.2164C31.237 42.395 31.3306 40.9559 30.3638 41.0504L29.8337 41.1029V27.2164V13.3298L30.3534 13.3508C30.7173 13.3718 30.9356 13.4454 31.0603 13.5819ZM48.8669 14.6008C49.0644 14.7059 49.0644 14.916 49.0644 23.1618C49.0644 31.8382 49.0541 32.0168 48.659 32.2164C48.5655 32.2584 47.6507 32.3214 46.6216 32.3529L44.7505 32.4055L43.9501 32.7941C42.8482 33.3193 42.2245 33.9391 41.6736 35.0525L41.2162 35.9559L41.185 37.5945C41.1538 38.9601 41.1227 39.2542 40.9771 39.3697C40.79 39.5168 38.2017 39.5378 34.4906 39.4223L32.2245 39.3592V26.9223V14.4958H40.447C45.9148 14.4958 48.7318 14.5273 48.8669 14.6008ZM28.8981 43.9601V44.7479H15.1247H1.35135V43.9601V43.1723H15.1247H28.8981V43.9601ZM29.3139 46.3971C29.3139 47.3845 29.1892 47.8887 28.8254 48.3193C28.2225 49.0546 29.2827 49.0021 15.3534 49.0336C6.35135 49.0546 2.67152 49.0231 2.35967 48.9391C1.81913 48.792 1.20582 48.1828 1.0499 47.6366C0.987526 47.4055 0.935551 46.8487 0.935551 46.3971V45.5882H15.1247H29.3139V46.3971Z" fill="#01523D" fill-opacity="0.05"/>
<path d="M23.3056 13.1408C22.5988 13.4979 22.0894 14.0336 21.9335 14.6008C21.7983 15.084 21.788 39.3172 21.9231 39.7899C22.2038 40.7668 23.4304 41.5966 24.605 41.5966C24.9688 41.5966 25.4366 41.5231 25.6445 41.4391C26.2578 41.1765 26.8815 40.5882 27.1726 40L27.4428 39.4538V27.2164C27.4428 15.5357 27.4324 14.9475 27.2453 14.5378C26.5489 12.9832 24.8233 12.3739 23.3056 13.1408ZM25.5821 13.9706C25.8732 14.1387 26.2682 14.7164 26.3929 15.1786C26.5489 15.7773 26.5489 38.645 26.3929 39.2332C26.2266 39.8109 25.7381 40.3992 25.3015 40.5462C24.7921 40.7143 24.1996 40.7038 23.8254 40.5042C23.3888 40.2836 22.9002 39.6744 22.7755 39.2122C22.6196 38.6555 22.6196 15.7563 22.7755 15.1996C22.8898 14.7794 23.3784 14.1492 23.7422 13.9496C24.2516 13.666 25.0416 13.687 25.5821 13.9706Z" fill="#01523D" fill-opacity="0.05"/>
<path d="M33.4927 15.4727C33.2848 15.6933 33.264 15.8298 33.264 16.8277C33.264 17.7836 33.2952 17.9727 33.4823 18.2143C33.6902 18.4769 33.7422 18.4874 34.6778 18.4874C35.5821 18.4874 35.6861 18.4664 35.9148 18.2248C36.1642 17.9832 36.1746 17.8992 36.1746 16.8277C36.1746 15.7668 36.1539 15.6723 35.9356 15.4622C35.7173 15.2626 35.5717 15.2311 34.7089 15.2311C33.8046 15.2311 33.7006 15.2521 33.4927 15.4727Z" fill="#01523D" fill-opacity="0.05"/>
<path d="M37.4428 15.4727C37.2349 15.6933 37.2141 15.8298 37.2141 16.8277C37.2141 17.7836 37.2453 17.9727 37.4324 18.2143C37.6403 18.4769 37.6923 18.4874 38.6278 18.4874C39.5322 18.4874 39.6361 18.4664 39.8648 18.2248C40.1143 17.9832 40.1247 17.8992 40.1247 16.8277C40.1247 15.7668 40.1039 15.6723 39.8856 15.4622C39.6673 15.2626 39.5218 15.2311 38.659 15.2311C37.7547 15.2311 37.6507 15.2521 37.4428 15.4727Z" fill="#01523D" fill-opacity="0.05"/>
<path d="M41.3929 15.4727C41.185 15.6933 41.1642 15.8298 41.1642 16.8277C41.1642 17.7836 41.1954 17.9727 41.3825 18.2143C41.5904 18.4769 41.6424 18.4874 42.578 18.4874C43.4823 18.4874 43.5863 18.4664 43.815 18.2248C44.0645 17.9832 44.0748 17.8992 44.0748 16.8277C44.0748 15.7668 44.0541 15.6723 43.8358 15.4622C43.6175 15.2626 43.4719 15.2311 42.6092 15.2311C41.7048 15.2311 41.6008 15.2521 41.3929 15.4727Z" fill="#01523D" fill-opacity="0.05"/>
<path d="M45.343 15.4727C45.1351 15.6933 45.1143 15.8298 45.1143 16.8277C45.1143 17.7836 45.1455 17.9727 45.3326 18.2143C45.5405 18.4769 45.5925 18.4874 46.528 18.4874C47.4324 18.4874 47.5364 18.4664 47.765 18.2248C48.0145 17.9832 48.0249 17.8992 48.0249 16.8277C48.0249 15.7668 48.0041 15.6723 47.7858 15.4622C47.5675 15.2626 47.422 15.2311 46.5592 15.2311C45.6549 15.2311 45.5509 15.2521 45.343 15.4727Z" fill="#01523D" fill-opacity="0.05"/>
<path d="M33.4823 35.7773C33.2952 36.0189 33.264 36.208 33.264 37.2059C33.264 38.2773 33.2744 38.3613 33.5239 38.6029C33.7526 38.8445 33.8566 38.8655 34.7193 38.8655C35.6133 38.8655 35.6757 38.8445 35.9148 38.5924C36.1539 38.3298 36.1746 38.2353 36.1746 37.1639C36.1746 36.0924 36.1642 36.0084 35.9148 35.7668C35.6861 35.5252 35.5821 35.5042 34.6778 35.5042C33.7422 35.5042 33.6902 35.5147 33.4823 35.7773Z" fill="#01523D" fill-opacity="0.05"/>
<path d="M37.4324 35.7773C37.2453 36.0189 37.2141 36.208 37.2141 37.2059C37.2141 38.2773 37.2245 38.3613 37.474 38.6029C37.7027 38.8445 37.8066 38.8655 38.6694 38.8655C39.5634 38.8655 39.6258 38.8445 39.8648 38.5924C40.1039 38.3298 40.1247 38.2353 40.1247 37.1639C40.1247 36.0924 40.1143 36.0084 39.8648 35.7668C39.6361 35.5252 39.5322 35.5042 38.6278 35.5042C37.6923 35.5042 37.6403 35.5147 37.4324 35.7773Z" fill="#01523D" fill-opacity="0.05"/>
</svg>
