<svg width="50" height="55" viewBox="0 0 50 55" fill="none" xmlns="http://www.w3.org/2000/svg">
<path d="M47.6562 6.875H46.875V9.02344C46.875 9.73242 46.3477 10.3125 45.7031 10.3125H41.7969C41.1523 10.3125 40.625 9.73242 40.625 9.02344V6.875H9.375V9.02344C9.375 9.73242 8.84766 10.3125 8.20312 10.3125H4.29688C3.65234 10.3125 3.125 9.73242 3.125 9.02344V6.875H2.34375C1.04492 6.875 0 8.02441 0 9.45312V45.5469C0 46.9756 1.04492 48.125 2.34375 48.125H3.125V45.9766C3.125 45.2676 3.65234 44.6875 4.29688 44.6875H8.20312C8.84766 44.6875 9.375 45.2676 9.375 45.9766V48.125H40.625V45.9766C40.625 45.2676 41.1523 44.6875 41.7969 44.6875H45.7031C46.3477 44.6875 46.875 45.2676 46.875 45.9766V48.125H47.6562C48.9551 48.125 50 46.9756 50 45.5469V9.45312C50 8.02441 48.9551 6.875 47.6562 6.875ZM9.375 39.9609C9.375 40.6699 8.84766 41.25 8.20312 41.25H4.29688C3.65234 41.25 3.125 40.6699 3.125 39.9609V35.6641C3.125 34.9551 3.65234 34.375 4.29688 34.375H8.20312C8.84766 34.375 9.375 34.9551 9.375 35.6641V39.9609ZM9.375 29.6484C9.375 30.3574 8.84766 30.9375 8.20312 30.9375H4.29688C3.65234 30.9375 3.125 30.3574 3.125 29.6484V25.3516C3.125 24.6426 3.65234 24.0625 4.29688 24.0625H8.20312C8.84766 24.0625 9.375 24.6426 9.375 25.3516V29.6484ZM9.375 19.3359C9.375 20.0449 8.84766 20.625 8.20312 20.625H4.29688C3.65234 20.625 3.125 20.0449 3.125 19.3359V15.0391C3.125 14.3301 3.65234 13.75 4.29688 13.75H8.20312C8.84766 13.75 9.375 14.3301 9.375 15.0391V19.3359ZM35.9375 41.6797C35.9375 42.3887 35.4102 42.9688 34.7656 42.9688H15.2344C14.5898 42.9688 14.0625 42.3887 14.0625 41.6797V31.3672C14.0625 30.6582 14.5898 30.0781 15.2344 30.0781H34.7656C35.4102 30.0781 35.9375 30.6582 35.9375 31.3672V41.6797ZM35.9375 23.6328C35.9375 24.3418 35.4102 24.9219 34.7656 24.9219H15.2344C14.5898 24.9219 14.0625 24.3418 14.0625 23.6328V13.3203C14.0625 12.6113 14.5898 12.0312 15.2344 12.0312H34.7656C35.4102 12.0312 35.9375 12.6113 35.9375 13.3203V23.6328ZM46.875 39.9609C46.875 40.6699 46.3477 41.25 45.7031 41.25H41.7969C41.1523 41.25 40.625 40.6699 40.625 39.9609V35.6641C40.625 34.9551 41.1523 34.375 41.7969 34.375H45.7031C46.3477 34.375 46.875 34.9551 46.875 35.6641V39.9609ZM46.875 29.6484C46.875 30.3574 46.3477 30.9375 45.7031 30.9375H41.7969C41.1523 30.9375 40.625 30.3574 40.625 29.6484V25.3516C40.625 24.6426 41.1523 24.0625 41.7969 24.0625H45.7031C46.3477 24.0625 46.875 24.6426 46.875 25.3516V29.6484ZM46.875 19.3359C46.875 20.0449 46.3477 20.625 45.7031 20.625H41.7969C41.1523 20.625 40.625 20.0449 40.625 19.3359V15.0391C40.625 14.3301 41.1523 13.75 41.7969 13.75H45.7031C46.3477 13.75 46.875 14.3301 46.875 15.0391V19.3359Z" fill="#637037" fill-opacity="0.02"/>
</svg>
