<svg width="50" height="50" viewBox="0 0 50 50" fill="none" xmlns="http://www.w3.org/2000/svg">
<g clip-path="url(#clip0)">
<path d="M48.7955 39.4043L35.7151 20.9961V6.25H36.608C38.0923 6.25 39.2865 5.20508 39.2865 3.90625V2.34375C39.2865 1.04492 38.0923 0 36.608 0H13.3937C11.9093 0 10.7151 1.04492 10.7151 2.34375V3.90625C10.7151 5.20508 11.9093 6.25 13.3937 6.25H14.2865V20.9961L1.20617 39.4043C-2.06392 44.0039 1.70841 50 7.91376 50H42.0879C48.3044 50 52.0656 43.9941 48.7955 39.4043ZM15.3914 31.25L20.7709 23.6719C21.1839 23.1641 21.4182 22.5391 21.4182 21.875V6.25H28.5611V21.875C28.5611 22.5488 28.8066 23.1641 29.2084 23.6719L34.5879 31.25H15.3914Z" fill="#637037" fill-opacity="0.03"/>
</g>
<defs>
<clipPath id="clip0">
<rect width="50" height="50" fill="white"/>
</clipPath>
</defs>
</svg>
