<svg width="51" height="50" viewBox="0 0 51 50" fill="none" xmlns="http://www.w3.org/2000/svg">
<g clip-path="url(#clip0)">
<path d="M49.7203 30.9257L45.2361 28.4839C45.6887 26.1812 45.6887 23.8188 45.2361 21.5161L49.7203 19.0743C50.2361 18.7964 50.4677 18.2207 50.2992 17.6847C49.1308 14.1512 47.1413 10.9551 44.5413 8.29502C44.1413 7.88807 43.4887 7.78881 42.9834 8.06673L38.4992 10.5085C36.615 8.9799 34.4466 7.79874 32.0992 7.02453V2.151C32.0992 1.59516 31.6887 1.1088 31.1097 0.989694C27.2465 0.175786 23.2886 0.215488 19.6149 0.989694C19.036 1.1088 18.6255 1.59516 18.6255 2.151V7.03446C16.2886 7.81859 14.1202 8.99975 12.2254 10.5184L7.75173 8.07666C7.23594 7.79874 6.59384 7.88807 6.19383 8.30495C3.59383 10.9551 1.60434 14.1512 0.435919 17.6947C0.256971 18.2307 0.499078 18.8064 1.01487 19.0843L5.49909 21.526C5.04646 23.8288 5.04646 26.1911 5.49909 28.4939L1.01487 30.9356C0.499078 31.2135 0.267498 31.7892 0.435919 32.3252C1.60434 35.8587 3.59383 39.0548 6.19383 41.7149C6.59384 42.1219 7.24647 42.2211 7.75173 41.9432L12.236 39.5015C14.1202 41.03 16.2886 42.2112 18.636 42.9854V47.8688C18.636 48.4247 19.0465 48.911 19.6255 49.0302C23.4886 49.8441 27.4465 49.8044 31.1202 49.0302C31.6992 48.911 32.1097 48.4247 32.1097 47.8688V42.9854C34.4466 42.2013 36.615 41.0201 38.5097 39.5015L42.994 41.9432C43.5098 42.2211 44.1519 42.1318 44.5519 41.7149C47.1519 39.0647 49.1413 35.8687 50.3098 32.3252C50.4677 31.7793 50.2361 31.2036 49.7203 30.9257ZM25.3623 32.9406C20.7202 32.9406 16.9412 29.3772 16.9412 25C16.9412 20.6228 20.7202 17.0594 25.3623 17.0594C30.0044 17.0594 33.7834 20.6228 33.7834 25C33.7834 29.3772 30.0044 32.9406 25.3623 32.9406Z" fill="#637037" fill-opacity="0.05"/>
</g>
<defs>
<clipPath id="clip0">
<rect width="50.7246" height="50" fill="white"/>
</clipPath>
</defs>
</svg>
