<svg width="48" height="50" viewBox="0 0 48 50" fill="none" xmlns="http://www.w3.org/2000/svg">
<path d="M15.0015 0.124996C14.9133 0.21323 14.8839 0.909309 14.8839 2.67402V5.10539H14.08C12.1682 5.10539 10.4329 5.92892 9.38387 7.31127L8.98191 7.85049H7.83485C6.58976 7.85049 5.96231 7.97794 5.08976 8.39951C4.42309 8.72303 3.46231 9.67402 3.08976 10.3701C2.4329 11.6054 1.10937 18.9093 0.530935 24.5662C-0.194555 31.5172 -0.174947 39.2426 0.579955 43.1446C1.08976 45.8015 2.4329 47.7721 4.43289 48.7819C5.78584 49.4583 4.67799 49.4289 23.8349 49.3995L41.1094 49.3701L41.6682 49.1544C43.3446 48.527 44.7172 47.1642 45.276 45.576C45.8054 44.076 46.6878 37.5564 46.9525 33.2623C47.0995 30.8015 47.0113 24.9093 46.7956 22.8995C46.1878 17.2132 45.0113 12.723 43.1486 8.92892C42.4819 7.58578 42.325 7.34068 41.7074 6.72304C40.5995 5.6152 39.325 5.10539 37.7074 5.10539H36.8447V2.67402C36.8447 0.909309 36.8152 0.21323 36.727 0.124996C36.5603 -0.0416718 15.1682 -0.0416718 15.0015 0.124996ZM35.9623 2.99755V5.10539H35.6192H35.276V3.45833C35.276 2.31127 35.2368 1.77205 35.1584 1.69362C34.9917 1.52695 16.7368 1.52695 16.5701 1.69362C16.4917 1.77205 16.4525 2.31127 16.4525 3.45833V5.10539H16.1094H15.7662V2.99755V0.889702H25.8643H35.9623V2.99755ZM34.3937 3.78186V5.10539H25.8643H17.3349V3.78186V2.45833H25.8643H34.3937V3.78186ZM39.1976 6.26225C40.5897 6.76225 41.3839 7.52696 42.1878 9.125C44.2466 13.223 45.5113 18.3995 45.9721 24.5662C46.2074 27.7721 46.0995 32.7132 45.7074 36.674C45.5603 38.1838 45.0211 42.1642 44.9231 42.4779C44.8839 42.625 44.629 42.6446 42.6486 42.674C40.4427 42.7034 40.4231 42.7034 39.9133 42.9681C38.5211 43.7034 37.7466 44.9779 37.3839 47.1642C37.3054 47.674 37.2074 48.1936 37.1878 48.3211L37.1388 48.5368H25.9133H14.6976L14.6682 41.9975L14.6388 35.4485L14.2662 34.3309C13.7368 32.7132 13.5898 31.8015 13.5407 29.5466C13.4623 26.6446 13.6878 25.1054 14.5505 22.5956L15.0211 21.2328L15.0603 15.4779C15.0799 11.3701 15.0603 9.59558 14.9721 9.30146C14.8349 8.76225 14.1878 8.10539 13.6584 7.95833C13.4427 7.89951 12.5603 7.85049 11.7074 7.85049H10.1388L10.4329 7.54657C11.1192 6.83088 12.276 6.26225 13.4035 6.09558C13.7074 6.04657 19.4917 6.01715 26.2564 6.02696L38.5603 6.03676L39.1976 6.26225ZM13.58 8.96814C13.7564 9.07598 13.9427 9.28186 14.0015 9.41911C14.0701 9.59558 14.0996 11.4681 14.08 15.4485L14.0407 21.2328L13.5898 22.5073C12.7662 24.8015 12.4721 26.8701 12.5603 29.6642C12.629 31.625 12.7858 32.7623 13.178 34.076C13.325 34.5662 13.5015 35.174 13.5701 35.4485C13.678 35.8309 13.7074 37.223 13.7074 42.2426V48.5564L10.0603 48.5172C7.01132 48.4779 6.30544 48.4387 5.82505 48.3015C4.02113 47.7917 2.67799 46.4583 1.9427 44.4289C1.34466 42.7917 1.06035 40.2524 0.991719 35.7917C0.883876 29.0466 1.57995 21.5858 2.98191 14.6642C3.70741 11.0564 3.87407 10.5858 4.7074 9.86029C5.24662 9.3897 6.21721 8.92892 6.87407 8.83088C7.15838 8.78186 8.7074 8.75245 10.325 8.76225C13.0505 8.78186 13.2858 8.79166 13.58 8.96814ZM44.6192 44.2917C44.325 45.9485 43.3446 47.2917 41.9329 47.9877C41.1388 48.3799 40.3054 48.527 38.9231 48.5368C38.1388 48.5368 38.1192 48.527 38.1682 48.3113C38.1878 48.1936 38.2858 47.6838 38.3643 47.1838C38.629 45.5858 39.0897 44.6936 39.9525 44.0858C40.5897 43.6446 41.1192 43.5466 43.0309 43.5466L44.7564 43.5368L44.6192 44.2917Z" fill="#01523D" fill-opacity="0.3"/>
<path d="M34.0506 8.87008C33.5408 9.10537 32.9623 9.6642 32.6584 10.223C32.3937 10.7132 32.4133 12.174 32.6976 12.7034C32.9819 13.2328 33.5604 13.772 34.0996 14.0171C34.5015 14.2034 34.7368 14.223 36.7957 14.223C38.9525 14.223 39.0702 14.2132 39.5408 13.9877C40.0506 13.7524 40.629 13.1936 40.9329 12.6348C41.178 12.174 41.178 10.6838 40.9329 10.223C40.629 9.6642 40.0506 9.10537 39.5408 8.87008C39.0702 8.64459 38.9525 8.63479 36.7957 8.63479C34.6388 8.63479 34.5212 8.64459 34.0506 8.87008ZM39.1486 9.73283C39.4918 9.9191 39.9035 10.3407 40.08 10.6936C40.2565 11.0269 40.2369 11.8603 40.0506 12.223C39.8545 12.6054 39.2761 13.1152 38.9231 13.2132C38.58 13.3113 35.0114 13.3113 34.6682 13.2132C34.3153 13.1152 33.7368 12.6054 33.5408 12.223C33.4525 12.0564 33.3839 11.7034 33.3839 11.4289C33.3839 11.1544 33.4525 10.8015 33.5408 10.6348C33.7466 10.2328 34.3251 9.73283 34.6682 9.65439C34.8153 9.62498 34.9819 9.58577 35.031 9.55635C35.0898 9.53675 35.9721 9.53675 36.9918 9.54655C38.5016 9.56616 38.9133 9.59557 39.1486 9.73283Z" fill="#01523D" fill-opacity="0.3"/>
<path d="M34.5701 10.3603C33.8054 10.7721 33.825 12.1054 34.5897 12.5074C35.1976 12.8211 36.0211 12.6152 36.3054 12.0662C36.6192 11.4583 36.4133 10.6348 35.8643 10.3505C35.5015 10.1642 34.9133 10.1642 34.5701 10.3603Z" fill="#01523D" fill-opacity="0.3"/>
<path d="M37.7074 10.3603C36.9427 10.7721 36.9623 12.1054 37.727 12.5074C38.3348 12.8211 39.1584 12.6152 39.4427 12.0662C39.7564 11.4583 39.5505 10.6348 39.0015 10.3505C38.6388 10.1642 38.0505 10.1642 37.7074 10.3603Z" fill="#01523D" fill-opacity="0.3"/>
<path d="M27.3839 14.6544C25.2074 15.0172 23.178 15.8113 21.4035 16.9975C18.1192 19.2034 15.9427 22.4093 15.1094 26.2819C14.8545 27.4583 14.8545 30.5858 15.1094 31.7721C16.3447 37.5466 20.7564 41.9387 26.6584 43.2622C27.5604 43.4583 27.9231 43.4877 29.7858 43.4877C31.58 43.4779 32.0407 43.4485 32.8447 43.272C38.7858 41.9387 43.178 37.5858 44.4525 31.7622C44.5996 31.1152 44.6388 30.527 44.6388 28.9779C44.6388 27.1936 44.6094 26.9191 44.3741 25.9191C43.727 23.2034 42.4427 20.8995 40.4721 18.9289C38.3741 16.8309 35.8545 15.4583 32.9035 14.8015C31.727 14.5368 28.58 14.4583 27.3839 14.6544ZM30.8349 15.4975C32.7466 15.6642 34.1878 16.0466 35.8349 16.8211C39.9721 18.7623 42.8839 22.5466 43.5702 26.8701C43.8054 28.3701 43.7172 30.7819 43.3741 32.1152C43.08 33.272 42.8447 33.8995 42.3153 34.9583C40.3545 38.8603 36.5309 41.6446 32.0898 42.4093C30.8349 42.625 28.5898 42.625 27.3839 42.4093C21.5702 41.3897 17.0015 36.8995 15.9917 31.2426C15.7858 30.0564 15.7858 27.9779 16.0015 26.7721C16.4525 24.2132 17.6584 21.8015 19.4231 19.9485C21.9035 17.3211 25.0604 15.7917 28.5604 15.4975C29.0407 15.4583 29.5113 15.4191 29.5898 15.4191C29.6682 15.4093 30.227 15.4485 30.8349 15.4975Z" fill="#01523D" fill-opacity="0.3"/>
<path d="M27.4819 17.027C26.4231 17.223 25.4623 17.5073 24.6094 17.9093C20.0603 19.9975 17.2368 24.2328 17.2368 28.9779C17.2368 32.2132 18.4623 35.1544 20.7662 37.4681C22.4721 39.1838 24.4623 40.3015 26.8937 40.8995C28.0603 41.1936 30.5113 41.2623 31.8545 41.0466C37.227 40.1544 41.4035 36.0368 42.2466 30.7917C42.3937 29.8505 42.3643 27.8309 42.1878 26.8897C41.4721 23.1446 38.9819 19.8897 35.5211 18.1936C33.5309 17.223 31.9329 16.8701 29.6388 16.8799C28.8839 16.8799 27.9133 16.9485 27.4819 17.027ZM32.178 18.0564C35.3545 18.6936 38.1976 20.674 39.8545 23.3995C40.9133 25.1446 41.3839 26.8505 41.3839 28.9779C41.3839 30.9485 41.08 32.2426 40.1976 33.9583C38.6094 37.0662 35.6388 39.2917 32.1388 40.0073C30.9721 40.2524 29.0015 40.3015 27.9133 40.1152C23.4035 39.3603 19.7368 36.1152 18.5407 31.8211C18.2074 30.6152 18.1192 28.3113 18.3545 27.0368C18.7564 24.8995 19.727 23.027 21.2858 21.4093C22.2074 20.4485 22.8349 19.9583 23.8643 19.3701C26.3937 17.9289 29.2466 17.4779 32.178 18.0564Z" fill="#01523D" fill-opacity="0.3"/>
<path d="M28.7564 18.8407C25.727 19.0662 22.8349 20.723 21.0309 23.2524C20.4231 24.1054 19.7564 25.5368 19.4819 26.576C19.2858 27.2819 19.2564 27.6544 19.2564 29.027C19.2564 30.3995 19.2858 30.7721 19.4819 31.4779C20.6094 35.674 24.1486 38.6936 28.5603 39.223C30.2368 39.4289 32.2074 39.1642 33.776 38.5368C37.4721 37.0564 40.0505 33.6838 40.3545 29.9387C40.6388 26.3799 39.178 23.1348 36.3349 20.9877C34.1682 19.3505 31.5898 18.625 28.7564 18.8407ZM30.8643 19.8113C33.6878 20.1642 36.227 21.6152 37.7564 23.7524C39.6094 26.3505 39.9721 29.8897 38.6682 32.7034C37.678 34.8603 35.6976 36.723 33.5113 37.5956C30.4329 38.8211 27.1094 38.4975 24.3054 36.7034C22.6388 35.6348 20.9721 33.3407 20.4231 31.3309C20.1682 30.4191 20.1192 28.2622 20.3152 27.2524C20.9525 24.125 23.2956 21.4485 26.3839 20.3505C27.1584 20.076 27.7564 19.9387 28.9035 19.7721C29.4035 19.7034 30.0603 19.7132 30.8643 19.8113Z" fill="#01523D" fill-opacity="0.3"/>
<path d="M28.3643 24.4583C27.178 24.8407 26.0211 25.7721 25.5407 26.7328C25.0996 27.6054 24.9525 28.2819 25.0015 29.2623C25.0603 30.3603 25.3152 31.0662 25.9525 31.8995C27.8447 34.3603 31.6584 34.3505 33.5309 31.8995C34.1584 31.0564 34.4133 30.3505 34.4721 29.2525C34.5211 28.1544 34.3054 27.3113 33.727 26.4191C33.2368 25.6642 32.6584 25.1642 31.7466 24.723C31.0505 24.3897 30.9525 24.3701 29.8839 24.3505C29.1486 24.3309 28.6192 24.3701 28.3643 24.4583ZM31.3152 25.527C33.227 26.4093 34.0799 28.7132 33.1878 30.625C32.0799 32.9877 28.9329 33.5172 27.0407 31.6544C25.6192 30.2525 25.5603 27.9681 26.9133 26.4681C27.3741 25.9583 27.727 25.7132 28.4035 25.4289C29.1976 25.0956 30.4623 25.1446 31.3152 25.527Z" fill="#01523D" fill-opacity="0.3"/>
<path d="M6.4427 11.9387C5.89368 12.2819 5.86427 12.4191 5.86427 15.1054C5.86427 17.7721 5.89368 17.9191 6.41329 18.3309C6.65839 18.527 6.79564 18.5368 8.42309 18.5368C10.3643 18.5368 10.5603 18.4877 10.8937 17.9583C11.0996 17.625 11.1094 17.4779 11.1388 15.5466C11.1878 12.8701 11.1388 12.5466 10.7074 12.1152L10.3643 11.7721H8.53094C7.01133 11.7721 6.65839 11.8015 6.4427 11.9387ZM9.99172 12.7524C10.1682 12.8505 10.178 12.9877 10.178 15.1544C10.178 17.3211 10.1682 17.4583 9.99172 17.5564C9.78584 17.6642 7.26623 17.6936 7.00153 17.5956C6.86427 17.5466 6.84466 17.2328 6.84466 15.1544C6.84466 13.3407 6.87408 12.7524 6.97212 12.723C7.20741 12.625 9.79564 12.6544 9.99172 12.7524Z" fill="#01523D" fill-opacity="0.3"/>
<path d="M6.28584 39.2623C5.4525 39.5368 4.59956 40.2034 4.11917 40.9681C3.40348 42.0858 3.31525 43.5858 3.89368 44.7622C4.28583 45.5662 5.08976 46.3701 5.84466 46.7426C6.35446 46.9975 6.50152 47.0172 7.48191 47.0172C8.51133 47.0172 8.59956 46.9975 9.21721 46.6936C10.3839 46.125 11.2662 44.9093 11.4329 43.6642C11.678 41.8995 10.776 40.2328 9.1976 39.4877C8.64858 39.223 8.43289 39.174 7.62897 39.1544C7.04074 39.1348 6.55054 39.174 6.28584 39.2623ZM8.76623 40.3505C9.39368 40.625 9.96231 41.1838 10.276 41.8211C10.5996 42.4975 10.5996 43.5662 10.2858 44.3015C9.98191 44.9779 9.17799 45.7132 8.49172 45.9485C7.02113 46.4289 5.49172 45.7917 4.78584 44.3995C4.24662 43.3015 4.42309 42.0073 5.23682 41.0956C6.15838 40.0662 7.51133 39.7819 8.76623 40.3505Z" fill="#01523D" fill-opacity="0.3"/>
<path d="M6.50152 41.3113C5.18779 42.0564 5.14858 43.9975 6.4427 44.8309C6.85446 45.0956 6.9525 45.1152 7.58976 45.0858C8.38387 45.0466 8.80544 44.8015 9.20741 44.1642C9.83486 43.1348 9.4427 41.7524 8.37407 41.2426C7.87407 41.0073 6.98191 41.0368 6.50152 41.3113ZM7.85446 42.1054C8.55054 42.3995 8.78584 43.0564 8.39368 43.6348C7.77603 44.5466 6.4525 44.174 6.4525 43.1054C6.4525 42.5956 6.72701 42.2034 7.16819 42.076C7.34466 42.027 7.49172 41.9779 7.51132 41.9779C7.52113 41.9681 7.67799 42.027 7.85446 42.1054Z" fill="#01523D" fill-opacity="0.3"/>
</svg>
