<svg width="50" height="50" viewBox="0 0 50 50" fill="none" xmlns="http://www.w3.org/2000/svg">
<path d="M43.75 18.75V7.54395C43.75 6.71484 43.4209 5.9209 42.835 5.33398L38.415 0.915039C37.8291 0.329102 37.0342 0 36.2051 0H9.375C7.64941 0 6.25 1.39941 6.25 3.125V18.75C2.79785 18.75 0 21.5479 0 25V35.9375C0 36.8008 0.699219 37.5 1.5625 37.5H6.25V46.875C6.25 48.6006 7.64941 50 9.375 50H40.625C42.3506 50 43.75 48.6006 43.75 46.875V37.5H48.4375C49.3008 37.5 50 36.8008 50 35.9375V25C50 21.5479 47.2021 18.75 43.75 18.75ZM37.5 43.75H12.5V34.375H37.5V43.75ZM37.5 21.875H12.5V6.25H31.25V10.9375C31.25 11.8008 31.9492 12.5 32.8125 12.5H37.5V21.875ZM42.1875 28.9062C40.8936 28.9062 39.8438 27.8564 39.8438 26.5625C39.8438 25.2676 40.8936 24.2188 42.1875 24.2188C43.4814 24.2188 44.5312 25.2676 44.5312 26.5625C44.5312 27.8564 43.4814 28.9062 42.1875 28.9062Z" fill="#01523D" fill-opacity="0.05"/>
</svg>
