<svg width="60" height="50" viewBox="0 0 60 50" fill="none" xmlns="http://www.w3.org/2000/svg">
<path d="M4.5 0C2.01844 0 0 2.10254 0 4.6875V10.9375C0 11.8008 0.67125 12.5 1.5 12.5H9V4.6875C9 2.10254 6.98156 0 4.5 0ZM24 40.29V34.375H51V9.375C51 4.20508 46.9631 0 42 0H10.4616C11.4131 1.30957 12 2.92188 12 4.6875V40.625C12 44.4209 15.2484 47.4268 19.0078 46.7891C21.9581 46.2891 24 43.4043 24 40.29ZM27 37.5V40.625C27 45.7939 22.9631 50 18 50H49.5C55.2994 50 60 45.1035 60 39.0625C60 38.1992 59.3288 37.5 58.5 37.5H27Z" fill="#637037" fill-opacity="0.03"/>
</svg>
